<svg xmlns="http://www.w3.org/2000/svg" xmlns:xlink="http://www.w3.org/1999/xlink" width="32" height="32" class="icon" p-id="4874" t="1582097165166" version="1.1" viewBox="0 0 1024 1024"><defs><style type="text/css"/></defs><path fill="#333" d="M272 704a47.84 47.84 0 0 0-33.936 14.064l-96 96a48 48 0 1 0 67.872 67.872l96-96A48 48 0 0 0 272 704z m-48-192a48 48 0 0 0-48-48H48a48 48 0 1 0 0 96h128a48 48 0 0 0 48-48z m-14.064-369.936a48 48 0 1 0-67.872 67.872l96 96a48 48 0 1 0 67.872-67.872l-96-96zM752 320a47.84 47.84 0 0 0 33.936-14.064l96-96a48 48 0 1 0-67.872-67.872l-96 96A48 48 0 0 0 752 320z m33.936 398.064a48 48 0 1 0-67.872 67.872l96 96a48 48 0 1 0 67.872-67.872l-96-96zM512 800a48 48 0 0 0-48 48v128a48 48 0 1 0 96 0v-128a48 48 0 0 0-48-48z m464-336h-128a48 48 0 1 0 0 96h128a48 48 0 1 0 0-96zM512 0a48 48 0 0 0-48 48v128a48 48 0 1 0 96 0V48a48 48 0 0 0-48-48z" p-id="4875"/></svg>