<svg xmlns="http://www.w3.org/2000/svg" xmlns:xlink="http://www.w3.org/1999/xlink" width="32" height="32" class="icon" p-id="11993" t="1582114549151" version="1.1" viewBox="0 0 1024 1024"><defs><style type="text/css"/></defs><path fill="#fff" d="M304 400h-87.04L304 285.552V240H144v48h84.48L144 397.552V448h160v-48zM144 80v80h640v487.648L568 864H224V528H144v416h457.216L864 680.672V80H144z m208 160v208h64V240h-64z m203.888 0H464v208h48v-48h39.312c98.4 0 89.856-160 4.576-160z m-16.064 112H512v-64h31.136c33.984 0 37.2 64-3.312 64zM480 800h80V640h160v-80H480v240z" p-id="11994"/></svg>